<?xml version="1.0" encoding="utf-8"?>
<!-- Generator: Adobe Illustrator 16.0.0, SVG Export Plug-In . SVG Version: 6.00 Build 0)  -->
<!DOCTYPE svg PUBLIC "-//W3C//DTD SVG 1.1//EN" "http://www.w3.org/Graphics/SVG/1.1/DTD/svg11.dtd">
<svg version="1.1" id="Layer_1" xmlns="http://www.w3.org/2000/svg" xmlns:xlink="http://www.w3.org/1999/xlink" x="0px" y="0px"
	 width="61px" height="50px" viewBox="0 0 61 50" enable-background="new 0 0 61 50" xml:space="preserve">
<polygon fill="#D8D8D8" points="41,45 47.5,37.001 55.999,36 38.999,24.5 "/>
<polygon fill="none" stroke="#000000" stroke-width="2" stroke-linecap="round" stroke-linejoin="round" stroke-miterlimit="10" points="
	41,45 39,24.5 56,36 47.5,37 "/>
<g>
	<defs>
		<path id="SVGID_1_" d="M5,17c0,6.627,5.372,12,12,12s12-5.373,12-12S23.628,5,17,5S5,10.373,5,17"/>
	</defs>
	<clipPath id="SVGID_2_">
		<use xlink:href="#SVGID_1_"  overflow="visible"/>
	</clipPath>
	<rect clip-path="url(#SVGID_2_)" fill="#D8D8D8" width="34" height="34"/>
</g>
<g>
	<defs>
		<rect id="SVGID_3_" width="61" height="50"/>
	</defs>
	<clipPath id="SVGID_4_">
		<use xlink:href="#SVGID_3_"  overflow="visible"/>
	</clipPath>
	
		<circle clip-path="url(#SVGID_4_)" fill="none" stroke="#000000" stroke-width="2" stroke-linecap="round" stroke-linejoin="round" stroke-miterlimit="10" cx="17" cy="17" r="12"/>
	
		<circle clip-path="url(#SVGID_4_)" fill="none" stroke="#000000" stroke-width="2" stroke-linecap="round" stroke-linejoin="round" stroke-miterlimit="10" cx="11" cy="17" r="1"/>
	
		<circle clip-path="url(#SVGID_4_)" fill="none" stroke="#000000" stroke-width="2" stroke-linecap="round" stroke-linejoin="round" stroke-miterlimit="10" cx="17" cy="17" r="1"/>
	
		<circle clip-path="url(#SVGID_4_)" fill="none" stroke="#000000" stroke-width="2" stroke-linecap="round" stroke-linejoin="round" stroke-miterlimit="10" cx="23" cy="17" r="1"/>
	
		<path clip-path="url(#SVGID_4_)" fill="none" stroke="#000000" stroke-width="2" stroke-linecap="round" stroke-linejoin="round" stroke-miterlimit="10" d="
		M47.936,30.274C52.198,27.4,55,22.527,55,17c0-8.836-7.163-16-16-16c-5.518,0-10.381,2.792-13.258,7.04 M25.737,25.952
		C28.613,30.205,33.479,33,39,33"/>
</g>
</svg>
