<?xml version="1.0" encoding="utf-8"?>
<!-- Generator: Adobe Illustrator 16.0.0, SVG Export Plug-In . SVG Version: 6.00 Build 0)  -->
<!DOCTYPE svg PUBLIC "-//W3C//DTD SVG 1.1//EN" "http://www.w3.org/Graphics/SVG/1.1/DTD/svg11.dtd">
<svg version="1.1" id="Layer_1" xmlns="http://www.w3.org/2000/svg" xmlns:xlink="http://www.w3.org/1999/xlink" x="0px" y="0px"
	 width="14.515px" height="13.845px" viewBox="0 0 14.515 13.845" enable-background="new 0 0 14.515 13.845" xml:space="preserve">
<g>
	<defs>
		<rect id="SVGID_1_" y="0" width="14.515" height="13.845"/>
	</defs>
	<clipPath id="SVGID_2_">
		<use xlink:href="#SVGID_1_"  overflow="visible"/>
	</clipPath>
	<path clip-path="url(#SVGID_2_)" fill="#0b6bb2" d="M9.018,13.845H0.801C0.359,13.845,0,13.485,0,13.044V0.802
		C0,0.36,0.359,0,0.801,0h5.474C6.443,0,6.58,0.137,6.58,0.305S6.443,0.609,6.275,0.609H0.801c-0.106,0-0.193,0.086-0.193,0.193
		v12.242c0,0.102,0.09,0.192,0.193,0.192h8.216c0.101,0,0.193-0.092,0.193-0.192V3.543c0-0.168,0.136-0.304,0.304-0.304
		s0.304,0.136,0.304,0.304v9.501C9.818,13.478,9.451,13.845,9.018,13.845"/>
	<path clip-path="url(#SVGID_2_)" fill="#0b6bb2" d="M9.522,3.848c-0.002,0-0.005,0-0.008,0H6.772c-0.442,0-0.802-0.36-0.802-0.802
		V0.304c0-0.123,0.075-0.234,0.188-0.281c0.114-0.047,0.245-0.021,0.332,0.066l3.2,3.201c0.082,0.054,0.137,0.147,0.137,0.253
		C9.827,3.711,9.69,3.848,9.522,3.848 M6.58,1.039v2.007c0,0.106,0.086,0.193,0.193,0.193h2.007L6.58,1.039z"/>
	<path clip-path="url(#SVGID_2_)" fill="#0b6bb2" d="M12.163,12.854c-0.574,0-1.191-0.526-1.191-1.681V1.966
		c0-0.168,0.136-0.305,0.304-0.305h1.774c0.168,0,0.304,0.137,0.304,0.305v9.207C13.354,12.327,12.736,12.854,12.163,12.854
		 M11.58,2.27v8.903c0,1.409,1.166,1.407,1.166,0V2.27H11.58z"/>
	<path clip-path="url(#SVGID_2_)" fill="#0b6bb2" d="M14.204,7.159L14.204,7.159c-0.169,0-0.305-0.137-0.304-0.305l0.006-3.134
		h-2.642c-0.168,0-0.305-0.137-0.305-0.305s0.137-0.304,0.305-0.304h2.946c0.08,0,0.158,0.032,0.215,0.089
		c0.058,0.057,0.09,0.135,0.09,0.216l-0.008,3.439C14.508,7.023,14.372,7.159,14.204,7.159"/>
	<path clip-path="url(#SVGID_2_)" fill="#0b6bb2" d="M12.133,13.845c-0.168,0-0.305-0.136-0.305-0.304v-0.992
		c0-0.168,0.137-0.304,0.305-0.304s0.304,0.136,0.304,0.304v0.992C12.437,13.709,12.301,13.845,12.133,13.845"/>
	<path clip-path="url(#SVGID_2_)" fill="#0b6bb2" d="M4.909,3.271H2.291c-0.168,0-0.304-0.136-0.304-0.304s0.136-0.305,0.304-0.305
		h2.618c0.168,0,0.304,0.137,0.304,0.305S5.077,3.271,4.909,3.271"/>
	<path clip-path="url(#SVGID_2_)" fill="#0b6bb2" d="M7.527,5.533H2.291c-0.168,0-0.304-0.136-0.304-0.304s0.136-0.305,0.304-0.305
		h5.236c0.168,0,0.305,0.137,0.305,0.305S7.695,5.533,7.527,5.533"/>
	<path clip-path="url(#SVGID_2_)" fill="#0b6bb2" d="M7.527,6.853H2.291c-0.168,0-0.304-0.136-0.304-0.304s0.136-0.305,0.304-0.305
		h5.236c0.168,0,0.305,0.137,0.305,0.305S7.695,6.853,7.527,6.853"/>
	<path clip-path="url(#SVGID_2_)" fill="#0b6bb2" d="M7.527,8.172H2.291c-0.168,0-0.304-0.136-0.304-0.304s0.136-0.304,0.304-0.304
		h5.236c0.168,0,0.305,0.136,0.305,0.304S7.695,8.172,7.527,8.172"/>
	<path clip-path="url(#SVGID_2_)" fill="#0b6bb2" d="M4.909,9.492H2.291c-0.168,0-0.304-0.136-0.304-0.304s0.136-0.304,0.304-0.304
		h2.618c0.168,0,0.304,0.136,0.304,0.304S5.077,9.492,4.909,9.492"/>
</g>
</svg>
